<svg width="770" height="386" viewBox="0 0 770 386" fill="none" xmlns="http://www.w3.org/2000/svg">
  <path d="M385.506 330.525C342.219 330.579 299.349 322.077 259.36 305.507C219.371 288.937 183.051 264.626 152.488 233.973L191.325 195.137C229.71 233.575 278.637 259.761 331.912 270.377C385.188 280.994 440.415 275.565 490.603 254.778C540.792 233.99 583.683 198.779 613.849 153.601C644.014 108.424 660.097 55.3115 660.061 0.988721V0.988721L714.977 0.98873C714.999 183.001 567.463 330.525 385.506 330.525Z" fill="url(#paint0_linear_159_379)" />
  <path d="M384.944 385.025C334.478 385.016 284.51 375.036 237.911 355.66C92.0651 295.222 3.18085 155.388 0.611979 7.00671L55.5196 6.07644C57.0469 92.483 92.4167 174.841 154.025 235.445C215.633 296.049 298.561 330.06 384.981 330.167L384.944 385.025Z" fill="url(#paint1_linear_159_379)" />
  <path d="M385.716 275.611C234.072 275.732 111.04 152.897 110.93 1.25377L110.93 1.00091L165.845 1.00092L165.845 1.20981C165.881 44.654 178.797 87.112 202.963 123.215C227.128 159.318 261.456 187.445 301.607 204.039C341.757 220.632 385.926 224.948 428.529 216.439C471.132 207.93 510.255 186.979 540.951 156.236L579.809 195.039C554.362 220.596 524.114 240.872 490.805 254.699C457.495 268.526 421.781 275.633 385.716 275.611V275.611Z" fill="url(#paint2_linear_159_379)" />
  <defs>
    <linearGradient id="paint0_linear_159_379" x1="489.5" y1="343.5" x2="656" y2="14.5" gradientUnits="userSpaceOnUse">
      <stop stop-color="#2229E0" />
      <stop offset="0.737299" stop-color="#2129E0" stop-opacity="0.112011" />
      <stop offset="1" stop-color="#2129E0" stop-opacity="0" />
    </linearGradient>
    <linearGradient id="paint1_linear_159_379" x1="364" y1="391" x2="57.5" y2="1.00001" gradientUnits="userSpaceOnUse">
      <stop stop-color="#94E7FF" />
      <stop offset="1" stop-color="#87E4FF" stop-opacity="0" />
    </linearGradient>
    <linearGradient id="paint2_linear_159_379" x1="455.5" y1="234.5" x2="188" y2="40" gradientUnits="userSpaceOnUse">
      <stop stop-color="#94E7FF" />
      <stop offset="1" stop-color="#87E4FF" stop-opacity="0" />
    </linearGradient>
  </defs>
</svg>
