<?xml version="1.0" encoding="utf-8"?>
<!-- Generator: Adobe Illustrator 26.3.1, SVG Export Plug-In . SVG Version: 6.00 Build 0)  -->
<svg version="1.1" id="Layer_1" xmlns="http://www.w3.org/2000/svg" xmlns:xlink="http://www.w3.org/1999/xlink" x="0px" y="0px"
	 width="500px" height="500px" viewBox="0 0 500 500" enable-background="new 0 0 500 500" xml:space="preserve">
<g>
	<path fill="#40C4FF" d="M85.53,85.53v266.45c0,26.39,3.31,32.86,16.45,46.05L203.95,500h207.24v-88.82L85.53,85.53z"/>
	<path fill="#29B6F6" d="M85.53,351.97c0,26.39,3.31,32.86,16.45,46.05l13.16,13.16h296.05L85.53,85.53V351.97z"/>
	<path fill="#01579B" d="M85.53,85.53L6.58,250C3.76,255.98,0,266.38,0,273.03c0,14.36,6.32,29.06,16.45,39.47l85.53,85.53
		c-13.14-13.19-16.45-19.67-16.45-46.05V85.53z"/>
	<path fill="#55C5F8" d="M105.26,401.32c-13.14-13.19-16.45-19.67-16.45-46.05V88.82l-3.29-3.29v266.45
		c0,26.39,3.31,32.86,16.45,46.05l13.16,13.16h0L105.26,401.32z"/>
	<path fill="#01579B" d="M348.68,85.53H85.53l325.66,325.66H500V207.24L394.74,101.97C379.95,87.13,366.82,85.53,348.68,85.53z"/>
	<path fill="#40C4FF" d="M394.74,101.97l-85.53-85.53C301.74,8.95,286.18,0,273.03,0c-11.31,0-22.41,2.26-29.6,6.58L85.53,85.53
		h263.16C366.82,85.53,379.95,87.13,394.74,101.97z"/>
	<polygon fill="#075087" points="496.71,203.95 496.71,407.89 407.89,407.89 411.18,411.18 500,411.18 500,207.24 	"/>
	<path fill="#3379AE" d="M394.74,101.97c-16.31-16.31-29.68-16.45-49.34-16.45H85.53l3.29,3.29h256.58
		C355.22,88.82,379.99,87.17,394.74,101.97L394.74,101.97z"/>
</g>
</svg>
