<svg width="86" height="33" viewBox="0 0 86 33" fill="none" xmlns="http://www.w3.org/2000/svg">
<g clip-path="url(#clip0_5_486)">
<path d="M6.50342 9.71324C6.33594 9.71324 6.29407 9.6295 6.37781 9.50389L7.25707 8.37341C7.34081 8.2478 7.55015 8.16406 7.71763 8.16406H22.6651C22.8325 8.16406 22.8744 8.28967 22.7907 8.41528L22.0789 9.50389C21.9951 9.6295 21.7858 9.7551 21.6602 9.7551L6.50342 9.71324Z" fill="#00ACD7"/>
<path d="M0.163572 13.5658C-0.00390625 13.5658 -0.0457758 13.482 0.0379633 13.3564L0.917223 12.2259C1.00096 12.1003 1.21031 12.0166 1.37779 12.0166H20.4703C20.6378 12.0166 20.7215 12.1422 20.6796 12.2678L20.3447 13.2727C20.3028 13.4402 20.1353 13.5239 19.9679 13.5239L0.163572 13.5658Z" fill="#00ACD7"/>
<path d="M10.3003 17.4173C10.1328 17.4173 10.0909 17.2917 10.1747 17.1661L10.7609 16.1194C10.8446 15.9938 11.0121 15.8682 11.1796 15.8682H19.5535C19.7209 15.8682 19.8047 15.9938 19.8047 16.1612L19.7209 17.1661C19.7209 17.3336 19.5535 17.4592 19.4278 17.4592L10.3003 17.4173Z" fill="#00ACD7"/>
<path d="M53.7439 8.95687C51.1061 9.62679 49.3058 10.1292 46.7098 10.7991C46.0818 10.9666 46.0399 11.0085 45.4956 10.3804C44.8676 9.66866 44.407 9.20809 43.5278 8.7894C40.89 7.49144 38.3359 7.86827 35.9494 9.41744C33.1022 11.2597 31.6368 13.9812 31.6787 17.3727C31.7206 20.7222 34.0234 23.4856 37.3311 23.9462C40.1782 24.323 42.5648 23.3181 44.4489 21.1828C44.8257 20.7222 45.1607 20.2198 45.5794 19.6336C44.0721 19.6336 42.1879 19.6336 37.4985 19.6336C36.6193 19.6336 36.4099 19.0893 36.703 18.3775C37.2473 17.0796 38.2522 14.9023 38.8384 13.8137C38.964 13.5625 39.2571 13.1438 39.8851 13.1438C42.0205 13.1438 49.8919 13.1438 55.1256 13.1438C55.0419 14.2743 55.0419 15.4048 54.8744 16.5353C54.4138 19.5499 53.2834 22.3133 51.4411 24.7417C48.4265 28.7193 44.4908 31.1896 39.5083 31.8595C35.4051 32.4038 31.5949 31.6083 28.2454 29.0961C25.147 26.7514 23.3885 23.6531 22.928 19.8011C22.3836 15.2373 23.7235 11.1341 26.4869 7.53331C29.4596 3.63944 33.3953 1.16914 38.2103 0.289881C42.1461 -0.421901 45.9143 0.0386637 49.3058 2.34149C51.5248 3.80692 53.1159 5.81666 54.1626 8.24509C54.4138 8.62192 54.2464 8.83126 53.7439 8.95687Z" fill="#00ACD7"/>
<path d="M67.6091 32.1127C63.799 32.0289 60.3238 30.9403 57.3929 28.4281C54.9226 26.2928 53.3735 23.5713 52.871 20.3473C52.1174 15.6161 53.4153 11.4291 56.2624 7.70273C59.3189 3.68326 63.0034 1.58978 67.9859 0.71052C72.2566 -0.0431316 76.2761 0.375564 79.9187 2.84587C83.2264 5.10682 85.278 8.16329 85.8223 12.1828C86.5341 17.8352 84.9012 22.4408 81.0073 26.3765C78.2439 29.1818 74.8525 30.9403 70.9587 31.7358C69.8282 31.9452 68.6977 31.9871 67.6091 32.1127ZM77.574 15.1974C77.5322 14.6531 77.5322 14.2344 77.4484 13.8157C76.6948 9.6706 72.8847 7.3259 68.907 8.24703C65.0132 9.12629 62.501 11.5966 61.5799 15.5323C60.8262 18.7982 62.4173 22.1058 65.4319 23.4457C67.7347 24.4505 70.0375 24.3249 72.2566 23.1945C75.5643 21.4778 77.3647 18.7982 77.574 15.1974Z" fill="#00ACD7"/>
</g>
<defs>
<clipPath id="clip0_5_486">
<rect width="86" height="32.1139" fill="white"/>
</clipPath>
</defs>
</svg>
