<svg width="60" height="60" viewBox="0 0 60 60" fill="none" xmlns="http://www.w3.org/2000/svg">
<path d="M60 0H0V60H60V0Z" fill="#F7DF1E"/>
<path d="M40.3075 46.8742C41.516 48.8475 43.0884 50.298 45.8694 50.298C48.2055 50.298 49.6979 49.1304 49.6979 47.517C49.6979 45.5837 48.1646 44.8989 45.5932 43.7742L44.1836 43.1694C40.1151 41.4361 37.4122 39.2647 37.4122 34.6742C37.4122 30.4456 40.6341 27.2266 45.6694 27.2266C49.2541 27.2266 51.8313 28.4742 53.6884 31.7408L49.2979 34.5599C48.3313 32.8266 47.2884 32.1437 45.6694 32.1437C44.0179 32.1437 42.9713 33.1913 42.9713 34.5599C42.9713 36.2513 44.0189 36.9361 46.4379 37.9837L47.8475 38.5875C52.6379 40.6418 55.3427 42.7361 55.3427 47.4447C55.3427 52.5208 51.3551 55.3018 45.9998 55.3018C40.7636 55.3018 37.3808 52.8066 35.7255 49.5361L40.3075 46.8742ZM20.3903 47.3628C21.276 48.9342 22.0817 50.2628 24.0189 50.2628C25.8713 50.2628 27.0398 49.538 27.0398 46.7199V27.5485H32.6779V46.7961C32.6779 52.6342 29.2551 55.2913 24.2589 55.2913C19.7446 55.2913 17.1303 52.9551 15.8008 50.1413L20.3903 47.3628Z" fill="black"/>
</svg>
