<svg
    width="80"
    height="94"
    viewBox="0 0 80 94"
    fill="none"
    xmlns="http://www.w3.org/2000/svg"
  >
    <path
      d="M79.9924 13.9978L75.2801 18.7102C70.6282 14.053 64.8992 10.6155 58.6009 8.7023C52.3026 6.78909 45.6295 6.4593 39.1733 7.74214C32.717 9.02499 26.677 11.8809 21.5885 16.0566C16.5001 20.2323 12.5204 25.5989 10.0024 31.6807C7.48427 37.7625 6.50552 44.3716 7.15287 50.9222C7.80021 57.4728 10.0537 63.7624 13.7135 69.2337C17.3733 74.705 22.3263 79.1888 28.1337 82.2878C33.941 85.3868 40.4233 87.0052 47.0057 86.9995V93.6673C39.3313 93.6685 31.7751 91.7769 25.0063 88.1603C18.2376 84.5436 12.4652 79.3134 8.20062 72.933C3.93601 66.5526 1.31076 59.2189 0.557422 51.5816C-0.195914 43.9442 0.945922 36.239 3.88177 29.1483C6.81761 22.0577 11.4568 15.8005 17.3885 10.9311C23.3202 6.06162 30.3613 2.73023 37.888 1.23196C45.4147 -0.266304 53.1948 0.11481 60.5391 2.34154C67.8833 4.56828 74.5651 8.5719 79.9924 13.9978Z"
      fill="#77E1FF"
    />
    <path
      d="M46.9976 13.666C39.6585 13.669 32.5254 16.0935 26.7047 20.5637C20.884 25.0338 16.7009 31.2997 14.8043 38.3896C12.9078 45.4794 13.4036 52.997 16.215 59.7763C19.0264 66.5556 23.9962 72.2178 30.3536 75.8847L33.6808 70.1125C30.3864 68.2187 27.5346 65.6428 25.3166 62.5573C23.0986 59.4718 21.5655 55.9479 20.82 52.2218C20.0746 48.4956 20.1339 44.6532 20.9942 40.9518C21.8544 37.2505 23.4956 33.7757 25.8079 30.7602C28.1202 27.7447 31.0501 25.2581 34.4015 23.4669C37.7529 21.6758 41.4483 20.6215 45.2403 20.3746C49.0323 20.1277 52.8332 20.694 56.3885 22.0354C59.9439 23.3769 63.1715 25.4626 65.8553 28.1529L70.5676 23.4378C67.4766 20.3362 63.803 17.8762 59.758 16.1992C55.713 14.5222 51.3765 13.6613 46.9976 13.666Z"
      fill="#77E1FF"
    />
    <path
      d="M70.5695 70.5654C66.6944 74.453 61.9196 77.3241 56.6689 78.924C51.4181 80.5239 45.8536 80.8031 40.4691 79.7368C35.0846 78.6706 30.0464 76.2919 25.8016 72.8117C21.5568 69.3315 18.2366 64.8575 16.1354 59.7864C14.0343 54.7154 13.2172 49.2042 13.7567 43.7417C14.2962 38.2792 16.1755 33.0343 19.228 28.4722C22.2805 23.9101 26.4117 20.172 31.2553 17.5894C36.0989 15.0067 41.505 13.6595 46.9941 13.6671V7.00195C40.4164 7.00338 33.9405 8.62695 28.1401 11.7289C22.3398 14.8308 17.3939 19.3153 13.7406 24.7851C10.0873 30.255 7.83931 36.5414 7.1958 43.0876C6.55228 49.6337 7.53307 56.2376 10.0513 62.3141C12.5696 68.3907 16.5475 73.7524 21.6328 77.9245C26.7181 82.0965 32.7539 84.95 39.2054 86.2323C45.6569 87.5145 52.3251 87.1859 58.6193 85.2756C64.9135 83.3653 70.6394 79.9323 75.2899 75.2805L70.5695 70.5654Z"
      fill="#161EDE"
    />
    <path
      d="M61.1449 61.1384C59.1309 63.1485 56.7111 64.7057 54.0472 65.706C51.3833 66.7064 48.5366 67.1268 45.6973 66.9391C42.8579 66.7515 40.0913 65.9602 37.5822 64.618C35.0731 63.2759 32.8793 61.4138 31.1472 59.1561C29.4152 56.8984 28.1849 54.2972 27.5383 51.5261C26.8918 48.755 26.8441 45.8778 27.3982 43.0868C27.9524 40.2957 29.0957 37.6551 30.7519 35.3412C32.408 33.0272 34.5388 31.0933 37.002 29.6686L33.6721 23.8965C30.3858 25.795 27.5425 28.373 25.3324 31.4583C23.1222 34.5437 21.596 38.0652 20.8559 41.7876C20.1157 45.51 20.1785 49.3475 21.0402 53.0436C21.9019 56.7398 23.5425 60.2094 25.8526 63.2207C28.1626 66.232 31.0887 68.7156 34.4354 70.5054C37.7821 72.2953 41.4723 73.3502 45.2594 73.5996C49.0464 73.8491 52.8431 73.2874 56.3957 71.952C59.9483 70.6166 63.1749 68.5384 65.86 65.8561L61.1449 61.1384Z"
      fill="#161EDE"
    />
  </svg>