<svg width="16" height="16" viewBox="0 0 16 16" fill="none" xmlns="http://www.w3.org/2000/svg">
<path d="M7.81832 0.000115911C7.16573 0.00324787 6.54261 0.0589114 5.99423 0.156002C4.379 0.441296 4.08573 1.03865 4.08573 2.1401V3.5949H7.90288V4.07978H2.65328C1.54386 4.07978 0.572522 4.74661 0.268722 6.01505C-0.0817732 7.46899 -0.0972907 8.37627 0.268722 9.89441C0.539921 11.0245 1.18795 11.8297 2.29738 11.8297H3.60967V10.0857C3.60967 8.82585 4.69974 7.71443 5.99423 7.71443H9.80697C10.8681 7.71443 11.7155 6.84061 11.7155 5.77474V2.14024C11.7155 1.1057 10.8428 0.328545 9.80697 0.156002C9.15125 0.0468106 8.4709 -0.00273133 7.81832 0.000115911ZM5.75407 1.17033C6.14841 1.17033 6.47029 1.49748 6.47029 1.89994C6.47029 2.30083 6.14827 2.62499 5.75407 2.62499C5.3583 2.62499 5.03785 2.30083 5.03785 1.89994C5.03785 1.49748 5.35845 1.17033 5.75407 1.17033Z" fill="url(#paint0_linear_337_4064)"/>
<path d="M12.1916 4.07983V5.7748C12.1916 7.08894 11.0775 8.19495 9.80706 8.19495H5.99432C4.94995 8.19495 4.08582 9.08884 4.08582 10.1346V13.7694C4.08582 14.8038 4.9854 15.4123 5.99432 15.7091C7.20269 16.0643 8.36137 16.1285 9.80706 15.7091C10.768 15.4308 11.7156 14.8709 11.7156 13.7694V12.3145H7.90297V11.8297H13.6241C14.7335 11.8297 15.1468 11.0559 15.5326 9.89447C15.9312 8.69877 15.9141 7.54891 15.5326 6.0151C15.2585 4.91066 14.7348 4.07983 13.6241 4.07983H12.1916ZM10.0472 13.2844C10.443 13.2844 10.7634 13.6087 10.7634 14.0096C10.7634 14.412 10.443 14.7392 10.0472 14.7392C9.65288 14.7392 9.331 14.412 9.331 14.0096C9.331 13.6087 9.65288 13.2844 10.0472 13.2844Z" fill="url(#paint1_linear_337_4064)"/>
<defs>
<linearGradient id="paint0_linear_337_4064" x1="-3.91109e-05" y1="0.000180433" x2="8.80167" y2="7.5005" gradientUnits="userSpaceOnUse">
<stop stop-color="#5A9FD4"/>
<stop offset="1" stop-color="#306998"/>
</linearGradient>
<linearGradient id="paint1_linear_337_4064" x1="9.95548" y1="13.8873" x2="6.79773" y2="9.46237" gradientUnits="userSpaceOnUse">
<stop stop-color="#FFD43B"/>
<stop offset="1" stop-color="#FFE873"/>
</linearGradient>
</defs>
</svg>
