<svg width="60" height="60" viewBox="0 0 60 60" fill="none" xmlns="http://www.w3.org/2000/svg">
<path d="M54.1406 0H5.85938C2.62333 0 0 2.62333 0 5.85938V54.1406C0 57.3767 2.62333 60 5.85938 60H54.1406C57.3767 60 60 57.3767 60 54.1406V5.85938C60 2.62333 57.3767 0 54.1406 0Z" fill="#3178C6"/>
<path fill-rule="evenodd" clip-rule="evenodd" d="M37.1484 47.6955V53.5549C38.0977 54.0471 39.2578 54.4104 40.5469 54.6564C41.8359 54.9025 43.2422 55.0197 44.6484 55.0197C46.0547 55.0197 47.3438 54.8908 48.6328 54.6213C49.9219 54.3518 50.9766 53.9064 51.9141 53.3322C52.8633 52.7111 53.6719 51.926 54.1406 50.8713C54.6094 49.8166 54.9727 48.6447 54.9727 47.1213C54.9727 46.0549 54.8086 45.1291 54.4922 44.3088C54.1758 43.4885 53.7188 42.7854 53.0859 42.1994C52.4883 41.5783 51.7969 41.0275 50.9766 40.5588C50.1562 40.09 49.2188 39.5979 48.1641 39.1525C47.3906 38.8361 46.7578 38.5314 46.0547 38.2268C45.4453 37.9221 44.918 37.6174 44.5312 37.3127C44.0977 36.9963 43.7695 36.6682 43.5352 36.3283C43.3008 35.9768 43.1836 35.59 43.1836 35.1564C43.1836 34.758 43.2879 34.3947 43.5 34.0666C43.7121 33.7385 44.0039 33.4689 44.3789 33.2346C44.7539 33.0002 45.2227 32.8244 45.7852 32.6955C46.3359 32.5666 46.9453 32.508 47.6602 32.508C48.1523 32.508 48.668 32.5443 49.1836 32.6182C49.7227 32.692 50.2734 32.8057 50.8242 32.958C51.375 33.1104 51.9141 33.2979 52.4648 33.5322C52.9805 33.7666 53.4609 34.0361 53.8711 34.3408V28.833C52.9805 28.4932 51.9961 28.2354 50.9414 28.0713C49.8867 27.9072 48.7148 27.8252 47.3086 27.8252C45.9023 27.8252 44.6133 27.9775 43.3242 28.2705C42.0352 28.5635 40.9805 29.0322 40.043 29.6768C39.0938 30.3096 38.4023 31.083 37.8164 32.1377C37.2656 33.1221 36.9961 34.2471 36.9961 35.6533C36.9961 37.4111 37.5 38.9346 38.5195 40.1064C39.5273 41.3955 41.0977 42.333 43.0898 43.2705C43.8984 43.5986 44.6133 43.9268 45.3164 44.2432C46.0195 44.5596 46.6055 44.8877 47.0742 45.2275C47.5781 45.5674 47.9766 45.9424 48.2461 46.3408C48.5391 46.7393 48.6914 47.208 48.6914 47.7471C48.6914 48.1221 48.6 48.4736 48.4219 48.8018C48.2438 49.1299 47.9648 49.4111 47.5898 49.6455C47.2148 49.8799 46.7578 50.0674 46.1836 50.208C45.6328 50.3369 45.0117 50.4072 44.1914 50.4072C42.9023 50.4072 41.6133 50.1846 40.4414 49.7393C39.1523 49.2939 37.9805 48.626 36.9258 47.7471L37.1484 47.6955ZM27.3047 33.2814H34.8047V28.4768H13.8281V33.2814H21.3281V54.7268H27.3047V33.2814Z" fill="white"/>
</svg>
