<svg width="19" height="19" viewBox="0 0 19 19" fill="none" xmlns="http://www.w3.org/2000/svg">
	<path
		d="M3.90999 11.68C3.90999 12.745 3.03999 13.615 1.97499 13.615C0.909993 13.615 0.0399933 12.745 0.0399933 11.68C0.0399933 10.615 0.909993 9.745 1.97499 9.745H3.90999V11.68Z"
		fill="currentColor" />
	<path
		d="M4.88499 11.68C4.88499 10.615 5.75499 9.745 6.81999 9.745C7.88499 9.745 8.75499 10.615 8.75499 11.68V16.525C8.75499 17.59 7.88499 18.46 6.81999 18.46C5.75499 18.46 4.88499 17.59 4.88499 16.525V11.68Z"
		fill="currentColor" />
	<path
		d="M6.81999 3.90999C5.75499 3.90999 4.88499 3.03999 4.88499 1.97499C4.88499 0.909993 5.75499 0.0399933 6.81999 0.0399933C7.88499 0.0399933 8.75499 0.909993 8.75499 1.97499V3.90999H6.81999Z"
		fill="currentColor" />
	<path
		d="M6.81999 4.88499C7.88499 4.88499 8.75499 5.75499 8.75499 6.81999C8.75499 7.88499 7.88499 8.75499 6.81999 8.75499H1.97499C0.909994 8.75499 0.0399933 7.88499 0.0399933 6.81999C0.0399933 5.75499 0.909994 4.88499 1.97499 4.88499H6.81999Z"
		fill="currentColor" />
	<path
		d="M14.59 6.81999C14.59 5.75499 15.46 4.88499 16.525 4.88499C17.59 4.88499 18.46 5.75499 18.46 6.81999C18.46 7.88499 17.59 8.75499 16.525 8.75499H14.59V6.81999Z"
		fill="currentColor" />
	<path
		d="M13.615 6.81999C13.615 7.88499 12.745 8.75499 11.68 8.75499C10.615 8.75499 9.745 7.88499 9.745 6.81999V1.97499C9.745 0.909994 10.615 0.0399933 11.68 0.0399933C12.745 0.0399933 13.615 0.909994 13.615 1.97499V6.81999Z"
		fill="currentColor" />
	<path
		d="M11.68 14.59C12.745 14.59 13.615 15.46 13.615 16.525C13.615 17.59 12.745 18.46 11.68 18.46C10.615 18.46 9.745 17.59 9.745 16.525V14.59H11.68Z"
		fill="currentColor" />
	<path
		d="M11.68 13.615C10.615 13.615 9.745 12.745 9.745 11.68C9.745 10.615 10.615 9.745 11.68 9.745H16.525C17.59 9.745 18.46 10.615 18.46 11.68C18.46 12.745 17.59 13.615 16.525 13.615H11.68Z"
		fill="currentColor" />
</svg>

